<svg version="1.1" class="clearos-svg clearfoundation app-vendor-clearfoundation app-free app-category-server app-sub-category-messaging" viewBox="0 0 400 400" preserveAspectRatio="xMinYMin" xmlns="http://www.w3.org/2000/svg" xmlns:xlink= "http://www.w3.org/1999/xlink">
<path fill="#AA0707" d="M91.666,184.647"/>
<path fill="#AA0707" d="M123.245,247.805"/>
<path fill="#AA0707" d="M91.666,184.647"/>
<path fill="#AA0707" d="M123.245,247.805"/>
<g>
	<polygon fill="#686868" points="195.813,297.223 286.926,213.826 105.75,214.251 	"/>
	<polygon fill="#686868" points="195.813,304.924 170.134,282.27 105.75,341.633 286.926,342.001 221.619,282.223 	"/>
	<polygon fill="#686868" points="105.75,221.286 105.75,332.744 164.96,277.633 	"/>
	<polygon fill="#686868" points="286.926,332.744 286.926,221.286 227.716,277.633 	"/>
	<polygon fill="#686868" points="198.62,149.883 253.587,90.672 233.949,90.672 233.854,57.999 163.379,57.999 163.492,90.264 
		143.613,90.48 	"/>
	<polygon fill="#686868" points="70.325,119.126 48.424,97.804 2.258,144.925 23.934,165.983 11.018,179.404 86.77,181.514 
		83.192,105.986 	"/>
	<polygon fill="#686868" points="397.742,143.754 349.4,96.312 327.773,118.517 313.977,105.265 311.795,183.038 389.318,179.436 
		375.811,166.216 	"/>
</g>
</svg>
